<svg xmlns="http://www.w3.org/2000/svg" viewBox="0 0 1079.26 1148.22"><defs><style>.cls-1{fill:#294798;}.cls-2{fill:none;stroke:#294798;stroke-miterlimit:10;}.cls-3{fill:#fff;}</style></defs><g id="Capa_2" data-name="Capa 2"><g id="Buscar_pelea" data-name="Buscar pelea"><path class="cls-1" d="M658.83,649.89l-42.34,40.16-39.17-42.82c9.18-7,21-18.5,43.23-39.19Z"/><path class="cls-1" d="M1079.26,1090.74l-61,57.48L608.53,700.4a10.78,10.78,0,0,1,.68-15.23h0l25.49-23.31,19.6-19.13a10.78,10.78,0,0,1,15.48.44Z"/><path class="cls-1" d="M356.26.5C159.78.5.5,159.77.5,356.25S159.78,712,356.26,712,712,552.73,712,356.25,552.73.5,356.26.5Zm0,636.28c-154.95,0-280.54-125.6-280.54-280.53S201.31,75.72,356.26,75.72,636.79,201.31,636.79,356.25,511.2,636.78,356.26,636.78Z"/><path class="cls-1" d="M356.23,86.05C207,86.05,86.06,207,86.06,356.25S207,626.44,356.23,626.44s270.17-121,270.17-270.19S505.45,86.05,356.23,86.05Zm0,518.74c-137.25,0-248.51-111.27-248.51-248.54S219,107.7,356.23,107.7,604.75,219,604.75,356.25,493.49,604.79,356.23,604.79Z"/><path class="cls-2" d="M712,356.25C712,552.73,552.73,712,356.26,712S.5,552.73.5,356.25,159.78.5,356.26.5,712,159.77,712,356.25Z"/><rect class="cls-3" x="631.5" y="707.87" width="99.17" height="18.86" transform="translate(-305.87 651.67) rotate(-42.68)"/><rect class="cls-3" x="949.74" y="1063.79" width="110.97" height="18.86" transform="translate(-461.3 965.66) rotate(-42.68)"/></g></g></svg>