<svg xmlns="http://www.w3.org/2000/svg" viewBox="0 0 1033.28 1039.32"><defs><style>.cls-1{fill:#294798;}.cls-2{fill:#fff;}</style></defs><g id="Capa_2" data-name="Capa 2"><g id="Mi_perfil" data-name="Mi perfil"><path class="cls-1" d="M773.5,1038.92c-77.82,4.73-122-33.48-153.86-80-73.16-106.82-25.6-319.84,64.17-372.2,77-44.89,160.4,73.69,158-99.84-1-69.86-160.58-105.1-325-106h-.3c-164.43.92-324,36.16-325,106-2.41,173.53,81,55,158,99.84,89.77,52.36,137.33,265.38,64.17,372.2-31.87,46.53-76,84.74-153.86,80C84.22,1028.27-20.61,423.38,3.41,244.77c13.57-101,113-171,245.1-209.5q6.68-2,13.48-3.8C339.66,10.42,427.71-.1,515.85,0h1.58c88.24-.1,176.4,10.45,254.15,31.55,4.53,1.23,9,2.49,13.47,3.8,132,38.52,231.25,108.46,244.83,209.42C1053.89,423.38,949.06,1028.27,773.5,1038.92Z"/><path class="cls-2" d="M785.05,35.35,772.33,78.76c-12.65,43.19-49.23,71.89-90.41,71.89q-3.46,0-7-.27c-40.49-3.18-96.62-5.1-158.06-5.41h-.19c-61.45.31-117.57,2.23-158.06,5.41-2.33.18-4.66.27-7,.27-41.18,0-77.76-28.7-90.42-71.89L248.51,35.27q6.68-2,13.48-3.8l12.7,43.35c11.48,39.2,45.55,64.53,82.86,61.6,40.84-3.19,97.39-5.13,159.22-5.44h.06c61.82.31,118.37,2.25,159.22,5.44,37.31,2.93,71.37-22.4,82.85-61.6l12.68-43.27C776.11,32.78,780.61,34,785.05,35.35Z"/></g></g></svg>