<svg id="Capa_1" data-name="Capa 1" xmlns="http://www.w3.org/2000/svg" viewBox="0 0 1366 768"><defs><style>.cls-1,.cls-2{fill:#fff;}.cls-1{stroke:#000;stroke-miterlimit:10;}</style></defs><line class="cls-1" x1="706.94" y1="108.19" x2="706.94" y2="71.56"/><rect class="cls-2" x="283.95" y="147.39" width="430.19" height="28.16" transform="matrix(0.93, -0.36, 0.36, 0.93, -24.72, 189.57)"/><rect class="cls-2" x="288.57" y="246.84" width="432.35" height="28.16" transform="translate(-46.94 124.96) rotate(-13.49)"/><rect class="cls-2" x="294.73" y="342.83" width="430.19" height="28.16" transform="translate(-38 61.63) rotate(-6.67)"/><rect class="cls-2" x="903.18" y="-53.28" width="28.16" height="430.19" transform="translate(437.48 960.16) rotate(-69)"/><rect class="cls-2" x="895.94" y="46.29" width="28.16" height="429.19" transform="translate(444.03 1084.93) rotate(-76.51)"/><rect class="cls-2" x="892.4" y="142.16" width="28.16" height="430.19" transform="translate(446.37 1216.11) rotate(-83.33)"/><path class="cls-2" d="M1120.59,540V214.81l-15-5.84.15,199.21L730.4,406.63l-.69-340.79-22.82-8.35-22.82,8.35-.69,340.79-375.33,1.55L308.2,209l-15,5.84V540c158,14.18,308.06,73.77,413.7,163.59C821.33,618.84,962.75,559.09,1120.59,540"/></svg>