<svg xmlns="http://www.w3.org/2000/svg" viewBox="0 0 941.01 1499.56"><defs><style>.cls-1{fill:#fff;}.cls-2{fill:#1c578a;}.cls-3{fill:#294798;}</style></defs><g id="Capa_2" data-name="Capa 2"><g id="Buscar_pelea" data-name="Buscar pelea"><path class="cls-1" d="M329.91,982.87s356,45.18,374.12-102.17"/><path class="cls-2" d="M330.13,981.19c9-2.17,17.87-3.84,26.68-5.39,4.41-.83,8.8-1.47,13.18-2.22s8.74-1.31,13.09-2c17.41-2.57,34.62-4.59,51.7-6.64,34.12-3.91,67.72-7,100.53-11.1,4.11-.46,8.18-1.05,12.26-1.57s8.13-1.11,12.15-1.72,8-1.27,12.07-1.84,8-1.34,11.92-2.05a386.45,386.45,0,0,0,46-10.84c14.76-4.51,28.66-10.3,41.1-18.74a89.72,89.72,0,0,0,17.37-15.27,108.63,108.63,0,0,0,14.19-21.29l3.36.41a87.38,87.38,0,0,1-6.83,25.81,88.66,88.66,0,0,1-14.45,22.57,114.87,114.87,0,0,1-20,17.77,164.09,164.09,0,0,1-23,13.42c-16,7.78-32.89,13.21-50,17.48-8.55,2.16-17.17,4-25.83,5.51s-17.35,2.91-26.07,4c-17.44,2.15-35,3.46-52.48,4.23s-35.07,1-52.59.62-35-1.18-52.48-2.4-34.88-3-52.27-5.38Z"/><path class="cls-3" d="M808.21,1196.24a279.11,279.11,0,0,0,12-30.33A438.69,438.69,0,0,0,832,1122.43c.81-3.63,1.55-7.26,2.32-10.88l2.13-10.86c1.47-7.22,2.66-14.49,4-21.75,4.94-29.06,8.49-58.36,10.83-87.75s3.2-58.89,2.89-88.37c-.26-14.74-.67-29.48-1.58-44.19-.23-3.68-.41-7.36-.68-11l-.85-11c-.53-7.34-1.25-14.74-2.06-22.11-3.25-29.5-8.46-59.15-17.64-88.12-2.31-7.23-4.86-14.42-7.7-21.52s-6-14.1-9.48-21a226.58,226.58,0,0,0-25-39.21,202.34,202.34,0,0,0-33.33-32.92c-3.05-2.43-6.22-4.68-9.38-7s-6.44-4.38-9.76-6.38a223.5,223.5,0,0,0-20.29-11.25c-27.69-13.64-57.19-22-86.68-27.33S570.49,552.06,541,551a772,772,0,0,0-88.78,1.82c-14.8,1.34-29.59,3-44.32,5.19-7.38,1-14.73,2.27-22.07,3.58l-2.75.49-2.73.61-5.47,1.21-5.46,1.27c-1.81.42-3.63.87-5.42,1.4-7.18,2.06-14.38,4-21.46,6.46-3.54,1.18-7.1,2.3-10.63,3.53l-10.51,3.85-5.26,1.93L311,584.48l-10.35,4.23c-3.42,1.49-6.81,3.06-10.21,4.58s-6.79,3-10.17,4.76a262.54,262.54,0,0,0-39,23.33,197.12,197.12,0,0,0-17.58,14.72l-2.09,2c-.68.66-1.34,1.37-2,2l-4,4.15-3.78,4.34c-.62.73-1.27,1.43-1.88,2.18l-1.77,2.26a147.91,147.91,0,0,0-12.82,19,145.82,145.82,0,0,0-8.87,18.22q-.48,1.14-.93,2.28a209.86,209.86,0,0,0-11.47,43.15,385.79,385.79,0,0,0-4.1,43.79c-.6,14.58-.66,29.13-.51,43.67,1.37-14.48,2.9-28.93,4.88-43.28a389.7,389.7,0,0,1,8.05-42.46,199.35,199.35,0,0,1,14.44-39.86,148.92,148.92,0,0,1,9.39-16.3c.39-.56.77-1.12,1.16-1.67a131.57,131.57,0,0,1,13-16.09l1.76-1.89c.58-.62,1.22-1.2,1.83-1.8l3.69-3.59,3.88-3.4c.65-.56,1.27-1.14,1.94-1.68l2-1.61a175,175,0,0,1,16.81-12,242,242,0,0,1,37.34-18.5c3.2-1.34,6.56-2.53,9.89-3.75s6.64-2.44,10-3.62l10.09-3.28,5-1.63,5.09-1.45,10.19-2.91c3.42-.91,6.86-1.72,10.28-2.58,6.82-1.82,13.79-3.1,20.67-4.65,3.43-.79,6.92-1.37,10.37-2.12s6.88-1.54,10.37-2.15,6.93-1.36,10.39-2.06,7-1.26,10.45-1.87,7-1.21,10.48-1.66L433.47,584c1.77-.21,3.52-.48,5.29-.64l5.29-.51,10.59-1A740.41,740.41,0,0,1,540,580.09c28.57,1,56.92,3.31,84.55,8.31s54.54,12.73,79,24.81a198.7,198.7,0,0,1,17.8,9.87c2.89,1.74,5.66,3.66,8.47,5.53s5.49,3.91,8.09,6a172.48,172.48,0,0,1,28.54,28.17c16.75,21,28.82,45.94,37.17,72.35s13.35,54.29,16.44,82.49c.78,7.06,1.47,14.12,2,21.26l.81,10.7c.27,3.56.44,7.14.66,10.7.89,14.28,1.29,28.59,1.54,42.89.3,28.6-.58,57.22-2.8,85.75s-5.72,56.94-10.51,85.14c-1.27,7-2.43,14.1-3.85,21.1l-2.07,10.53c-.74,3.47-1.44,7-2.22,10.42a412.94,412.94,0,0,1-11,40.57,228.82,228.82,0,0,1-16,37.68,154.17,154.17,0,0,1-23.1,32.19,128.77,128.77,0,0,1-31,23.88,192,192,0,0,1-37.2,15.7,334.33,334.33,0,0,1-40.63,9.54c-13.89,2.46-28,4.37-42.37,6.16-28.59,3.58-57.19,6.49-85.78,8.2a808.8,808.8,0,0,1-85.54.86,553.16,553.16,0,0,1-84.21-10.12,416.12,416.12,0,0,1-80.34-24.68c-3.2-1.39-6.45-2.74-9.55-4.23-1.57-.73-3.14-1.45-4.7-2.2l-4.65-2.32c-1.55-.76-3.09-1.56-4.6-2.39l-4.6-2.45-4.51-2.56c-1.51-.86-3-1.7-4.5-2.62A313.36,313.36,0,0,1,195,1213.73a300,300,0,0,1-57.43-59.66,255.45,255.45,0,0,1-21.26-35.22c-1.46-3.09-3-6.14-4.33-9.28-.67-1.57-1.37-3.12-2-4.7l-1.86-4.75-.94-2.38-.85-2.4-1.69-4.81c-.53-1.61-1-3.24-1.52-4.85s-1-3.24-1.44-4.88c-.87-3.27-1.79-6.54-2.47-9.85-.35-1.66-.77-3.29-1.07-5l-.9-5c-.14-.82-.32-1.66-.43-2.48l-.33-2.42c-.23-1.62-.47-3.23-.58-4.87s-.34-3.25-.41-4.87l-.22-4.9a141.58,141.58,0,0,1,1-19.62c.24-1.62.39-3.26.69-4.88l.84-4.86,1-4.83c.33-1.62.81-3.19,1.22-4.79a152.67,152.67,0,0,1,6.39-18.74A161.78,161.78,0,0,1,115.39,966a167.69,167.69,0,0,1,24.19-31.87,162.52,162.52,0,0,1,14.75-13.62,154.38,154.38,0,0,1,16.26-11.72,165.36,165.36,0,0,1,17.55-9.49q2.21-1,4.42-2,6.83-3,13.8-5.57a112.75,112.75,0,0,1,38-7.14,89.11,89.11,0,0,1,18.89,1.94,80.22,80.22,0,0,1,17.84,6.33,86.37,86.37,0,0,1,29.84,24.47,91.54,91.54,0,0,1,10.49,16.82l1.1,2.25c.36.75.65,1.53,1,2.31.62,1.55,1.33,3,1.89,4.67,1.2,3.21,2.24,6.49,3.21,9.78A115.89,115.89,0,0,1,333,993.81a93.73,93.73,0,0,1-1.36,10.17,78,78,0,0,1-2.6,9.82,72.06,72.06,0,0,1-9.33,18.17,76.56,76.56,0,0,1-9,10.6c-14.91,14-35.56,22.58-51,26.07-9.93,2.24-22.12,4.8-32.4,3.43l4.8.61c12.42,1.55,25,2.54,37.44.49,23.77-3.92,45.87-17.92,60.38-37,.46-.61,6-10.22,6.5-10.28h-2.27l.35-.58c0,.18-.05.35-.08.53C481.29,1026.89,688,1011.42,704,917.16h0l-2.62.53a88.8,88.8,0,0,1-19.79,22.24c-1,.76-1.89,1.54-2.9,2.27s-2.06,1.41-3.06,2.11a68.58,68.58,0,0,1-6.25,3.93l-1.56.94c-.58.28-1.12.58-1.67.87l-3.25,1.73c-1,.6-2.22,1.1-3.35,1.63L656.2,955l-6.89,2.91c-2.35.9-4.77,1.73-7.11,2.61s-4.86,1.57-7.24,2.39-4.94,1.46-7.38,2.19-5.08,1.25-7.53,2-5.07,1.25-7.6,1.87l-1.89.46-1.94.41-3.88.82L597,972.18c-20.86,4.06-42.49,7-64.38,9.56s-44.17,4.55-66.61,6.43-45.11,3.59-67.91,5.37c-17.78,1.39-35.64,2.78-53.59,4.36.16-.86.31-1.72.46-2.58,2.57-15.2,1.82-30.78-1.11-45.81-.77-3.75-1.62-7.51-2.67-11.2-.47-1.84-1.15-3.73-1.73-5.59-.31-.93-.58-1.88-.93-2.8l-1.08-2.75A109.44,109.44,0,0,0,292,873a101.82,101.82,0,0,0-22.46-9.95,114.47,114.47,0,0,0-24.12-4.35A139.82,139.82,0,0,0,197.56,864a131.13,131.13,0,0,0-13.88,4.74q-4.26,1.71-8.36,3.7a180.46,180.46,0,0,0-20.48,11.72A206.28,206.28,0,0,0,118.64,914a196.47,196.47,0,0,0-28.35,37.37,189.22,189.22,0,0,0-10.62,21.16A180.55,180.55,0,0,0,72,994.93c-.49,1.93-1,3.84-1.46,5.77l-1.26,5.82-1,5.87c-.36,2-.56,3.93-.83,5.91a170.91,170.91,0,0,0-1.22,23.85l.27,6c.09,2,.32,4,.49,6s.43,4,.7,6l.42,3c.13,1,.33,1.92.49,2.88l1,5.73c.35,1.92.82,3.8,1.23,5.7.8,3.8,1.83,7.53,2.83,11.27.47,1.88,1.07,3.72,1.64,5.57s1.13,3.7,1.73,5.54l1.93,5.47,1,2.72,1.06,2.7,2.13,5.38c.73,1.78,1.52,3.54,2.29,5.3,1.49,3.55,3.21,7,4.87,10.46.43.88.87,1.75,1.32,2.63-24.53-24.62-44.22-47.84-54.24-66.21-74.73-137-24.3-272.81,37.5-403,28.1-59.18,57.25-113.85,63.05-180,4-45.18,8.17-120.6-30.13-154,2,.57,129.79,37.3,173.5,155.36-3-9.56-99.47-326.72,329.3-486.47,0,0-156.82,291.38,74.38,536.34-5.7-130.08,106-176.48,106.28-175-2.89,61.86,21,152.63,39.41,193.79,70.21,157.24,53.87,129,83.5,198.62C976.81,901,925.12,1084.88,808.21,1196.24Z"/><path class="cls-1" d="M851.27,991.19c-2.34,29.39-5.89,58.69-10.83,87.75-1.31,7.26-2.5,14.53-4,21.75l-2.13,10.86c-.77,3.62-1.51,7.25-2.32,10.88a438.69,438.69,0,0,1-11.83,43.48,279.11,279.11,0,0,1-12,30.33q-2.82,6.09-6.1,12a182.28,182.28,0,0,1-27.59,38.35c-1.32,1.51-2.79,2.86-4.24,4.25l-4.35,4.15c-1.48,1.34-3.06,2.57-4.58,3.87s-3.06,2.6-4.65,3.8l-4.85,3.51c-1.61,1.17-3.21,2.37-4.91,3.39-3.36,2.09-6.66,4.35-10.15,6.18a221.33,221.33,0,0,1-42.9,18.15,362.54,362.54,0,0,1-44.14,10.39c-14.71,2.6-29.35,4.57-43.84,6.39-29,3.63-58.27,6.61-87.68,8.36a836.57,836.57,0,0,1-88.63.89A580.75,580.75,0,0,1,341,1309.29,445.5,445.5,0,0,1,255,1282.86c-3.45-1.51-6.91-2.93-10.36-4.59-1.72-.8-3.46-1.59-5.16-2.41l-5.11-2.55c-1.7-.83-3.39-1.72-5-2.62l-5-2.69-5-2.8c-1.64-1-3.3-1.87-4.91-2.87A343.82,343.82,0,0,1,177,1236.55,329.5,329.5,0,0,1,114,1171a286.77,286.77,0,0,1-22.39-36.66c-.45-.88-.89-1.75-1.32-2.63-1.66-3.47-3.38-6.91-4.87-10.46-.77-1.76-1.56-3.52-2.29-5.3L81,1110.61l-1.06-2.7-1-2.72L77,1099.72c-.6-1.84-1.15-3.69-1.73-5.54s-1.17-3.69-1.64-5.57c-1-3.74-2-7.47-2.83-11.27-.41-1.9-.88-3.78-1.23-5.7l-1-5.73c-.16-1-.36-1.89-.49-2.88l-.42-3c-.27-2-.56-4-.7-6s-.4-4-.49-6l-.27-6a170.91,170.91,0,0,1,1.22-23.85c.27-2,.47-3.95.83-5.91l1-5.87,1.26-5.82c.41-1.93,1-3.84,1.46-5.77a180.55,180.55,0,0,1,7.68-22.45,189.22,189.22,0,0,1,10.62-21.16A196.47,196.47,0,0,1,118.64,914a206.28,206.28,0,0,1,36.2-29.79,180.46,180.46,0,0,1,20.48-11.72q4.1-2,8.36-3.7A131.13,131.13,0,0,1,197.56,864a139.82,139.82,0,0,1,47.81-5.26,114.47,114.47,0,0,1,24.12,4.35A101.82,101.82,0,0,1,292,873a109.44,109.44,0,0,1,45.45,54.13l1.08,2.75c.35.92.62,1.87.93,2.8.58,1.86,1.26,3.75,1.73,5.59,1.05,3.69,1.9,7.45,2.67,11.2,2.93,15,3.68,30.61,1.11,45.81-.15.86-.3,1.72-.46,2.58,18-1.58,35.81-3,53.59-4.36,22.8-1.78,45.44-3.51,67.91-5.37s44.68-3.94,66.61-6.43,43.52-5.5,64.38-9.56l7.79-1.59,3.88-.82,1.94-.41,1.89-.46c2.53-.62,5.12-1.18,7.6-1.87s5-1.28,7.53-2,4.94-1.43,7.38-2.19,4.8-1.62,7.24-2.39,4.76-1.71,7.11-2.61L656.2,955l3.37-1.54c1.13-.53,2.32-1,3.35-1.63l3.25-1.73c.55-.29,1.09-.59,1.67-.87l1.56-.94a68.58,68.58,0,0,0,6.25-3.93c1-.7,2-1.41,3.06-2.11s1.92-1.51,2.9-2.27a88.8,88.8,0,0,0,19.79-22.24l2.62-.53h0c-16,94.26-222.74,109.73-369.62,108.65,0-.18.06-.35.08-.53l-.35.58h2.27c-.54.06-6,9.67-6.5,10.28-14.51,19.11-36.61,33.11-60.38,37-12.42,2-25,1.06-37.44-.49l-4.8-.61c10.28,1.37,22.47-1.19,32.4-3.43,15.48-3.49,36.13-12,51-26.07a76.56,76.56,0,0,0,9-10.6A72.06,72.06,0,0,0,329,1013.8a78,78,0,0,0,2.6-9.82A93.73,93.73,0,0,0,333,993.81a115.89,115.89,0,0,0-4.41-40.67c-1-3.29-2-6.57-3.21-9.78-.56-1.64-1.27-3.12-1.89-4.67-.33-.78-.62-1.56-1-2.31l-1.1-2.25a91.54,91.54,0,0,0-10.49-16.82,86.37,86.37,0,0,0-29.84-24.47,80.22,80.22,0,0,0-17.84-6.33,89.11,89.11,0,0,0-18.89-1.94,112.75,112.75,0,0,0-38,7.14q-7,2.53-13.8,5.57-2.22,1-4.42,2a165.36,165.36,0,0,0-17.55,9.49,154.38,154.38,0,0,0-16.26,11.72,162.52,162.52,0,0,0-14.75,13.62A167.69,167.69,0,0,0,115.39,966a161.78,161.78,0,0,0-8.92,17.75,152.67,152.67,0,0,0-6.39,18.74c-.41,1.6-.89,3.17-1.22,4.79l-1,4.83L97,1017c-.3,1.62-.45,3.26-.69,4.88a141.58,141.58,0,0,0-1,19.62l.22,4.9c.07,1.62.28,3.25.41,4.87s.35,3.25.58,4.87l.33,2.42c.11.82.29,1.66.43,2.48l.9,5c.3,1.67.72,3.3,1.07,5,.68,3.31,1.6,6.58,2.47,9.85.4,1.64.94,3.26,1.44,4.88s1,3.24,1.52,4.85l1.69,4.81.85,2.4.94,2.38,1.86,4.75c.67,1.58,1.37,3.13,2,4.7,1.31,3.14,2.87,6.19,4.33,9.28a255.45,255.45,0,0,0,21.26,35.22A300,300,0,0,0,195,1213.73a313.36,313.36,0,0,0,34.27,23.61c1.47.92,3,1.76,4.5,2.62l4.51,2.56,4.6,2.45c1.51.83,3.05,1.63,4.6,2.39l4.65,2.32c1.56.75,3.13,1.47,4.7,2.2,3.1,1.49,6.35,2.84,9.55,4.23a416.12,416.12,0,0,0,80.34,24.68A553.16,553.16,0,0,0,431,1290.91a808.8,808.8,0,0,0,85.54-.86c28.59-1.71,57.19-4.62,85.78-8.2,14.32-1.79,28.48-3.7,42.37-6.16a334.33,334.33,0,0,0,40.63-9.54,192,192,0,0,0,37.2-15.7,128.77,128.77,0,0,0,31-23.88,154.17,154.17,0,0,0,23.1-32.19,228.82,228.82,0,0,0,16-37.68,412.94,412.94,0,0,0,11-40.57c.78-3.46,1.48-7,2.22-10.42l2.07-10.53c1.42-7,2.58-14.06,3.85-21.1,4.79-28.2,8.23-56.63,10.51-85.14s3.1-57.15,2.8-85.75c-.25-14.3-.65-28.61-1.54-42.89-.22-3.56-.39-7.14-.66-10.7l-.81-10.7c-.52-7.14-1.21-14.2-2-21.26-3.09-28.2-8.05-56-16.44-82.49s-20.42-51.34-37.17-72.35a172.48,172.48,0,0,0-28.54-28.17c-2.6-2.11-5.36-4-8.09-6s-5.58-3.79-8.47-5.53a198.7,198.7,0,0,0-17.8-9.87c-24.48-12.08-51.42-19.81-79-24.81s-56-7.32-84.55-8.31a740.41,740.41,0,0,0-85.36,1.74l-10.59,1-5.29.51c-1.77.16-3.52.43-5.29.64l-10.53,1.33c-3.51.45-7,1.1-10.48,1.66s-7,1.13-10.45,1.87-6.93,1.39-10.39,2.06-6.91,1.46-10.37,2.15-6.94,1.33-10.37,2.12C364,596.73,357,598,350.21,599.83c-3.42.86-6.86,1.67-10.28,2.58l-10.19,2.91-5.09,1.45-5,1.63-10.09,3.28c-3.33,1.18-6.64,2.42-10,3.62s-6.69,2.41-9.89,3.75a242,242,0,0,0-37.34,18.5,175,175,0,0,0-16.81,12l-2,1.61c-.67.54-1.29,1.12-1.94,1.68l-3.88,3.4L224,659.79c-.61.6-1.25,1.18-1.83,1.8l-1.76,1.89a131.57,131.57,0,0,0-13,16.09c-.39.55-.77,1.11-1.16,1.67a148.92,148.92,0,0,0-9.39,16.3,199.35,199.35,0,0,0-14.44,39.86,389.7,389.7,0,0,0-8.05,42.46c-2,14.35-3.51,28.8-4.88,43.28-.15-14.54-.09-29.09.51-43.67a385.79,385.79,0,0,1,4.1-43.79,209.86,209.86,0,0,1,11.47-43.15q.45-1.14.93-2.28A145.82,145.82,0,0,1,195.38,672a147.91,147.91,0,0,1,12.82-19l1.77-2.26c.61-.75,1.26-1.45,1.88-2.18l3.78-4.34,4-4.15c.67-.68,1.33-1.39,2-2l2.09-2a197.12,197.12,0,0,1,17.58-14.72,262.54,262.54,0,0,1,39-23.33c3.38-1.74,6.78-3.22,10.17-4.76s6.79-3.09,10.21-4.58L311,584.48l5.18-2.12,5.26-1.93,10.51-3.85c3.53-1.23,7.09-2.35,10.63-3.53,7.08-2.42,14.28-4.4,21.46-6.46,1.79-.53,3.61-1,5.42-1.4l5.46-1.27,5.47-1.21,2.73-.61,2.75-.49c7.34-1.31,14.69-2.61,22.07-3.58,14.73-2.23,29.52-3.85,44.32-5.19A772,772,0,0,1,541,551c29.46,1,59.16,3.42,88.71,8.77s59,13.69,86.68,27.33a223.5,223.5,0,0,1,20.29,11.25c3.32,2,6.53,4.21,9.76,6.38s6.33,4.53,9.38,7a202.34,202.34,0,0,1,33.33,32.92,226.58,226.58,0,0,1,25,39.21q5.21,10.32,9.48,21c2.84,7.1,5.39,14.29,7.7,21.52,9.18,29,14.39,58.62,17.64,88.12.81,7.37,1.53,14.77,2.06,22.11l.85,11c.27,3.68.45,7.36.68,11,.91,14.71,1.32,29.45,1.58,44.19C854.47,932.3,853.56,961.8,851.27,991.19Z"/><path class="cls-3" d="M270.75,1327.18s223,27.16,332.47,9.14c0,0,74.87,84.24-41.67,154.55,0,0-286.19,48-281.54-81.85Z"/><path class="cls-3" d="M626.81,1327.18s69.2,89.09-29.89,162.15c0,0,102-2.33,102-86.09,0,0,8.33-83.08,3.68-90.74C702.62,1312.5,665.71,1322.59,626.81,1327.18Z"/><path class="cls-1" d="M206.26,681.24a183.2,183.2,0,0,0-15.91,34.46c-7.14,21.76-11.51,44.41-14.65,67.07a557.26,557.26,0,0,0-5.72,80.8c-3-50.67-4.81-100.68,8.22-149.86a157.41,157.41,0,0,1,8.31-23.46q-.48,1.14-.93,2.28a209.86,209.86,0,0,0-11.47,43.15,385.79,385.79,0,0,0-4.1,43.79c-.6,14.58-.66,29.13-.51,43.67,1.37-14.48,2.9-28.93,4.88-43.28a389.7,389.7,0,0,1,8.05-42.46,199.35,199.35,0,0,1,14.44-39.86A148.92,148.92,0,0,1,206.26,681.24Z"/></g></g></svg>